<svg width="18" height="18" viewBox="0 0 18 18" fill="none" xmlns="http://www.w3.org/2000/svg">
<path d="M7.5 10.5C7.99373 11.004 8.66952 11.2879 9.375 11.2879C10.0805 11.2879 10.7563 11.004 11.25 10.5L14.25 7.50004C15.2855 6.46451 15.2855 4.78557 14.25 3.75004C13.2145 2.71451 11.5355 2.71451 10.5 3.75004L10.125 4.12504" stroke="white" stroke-width="1.5" stroke-linecap="round" stroke-linejoin="round"/>
<path d="M10.4999 7.50004C10.0062 6.99613 9.3304 6.71216 8.62492 6.71216C7.91944 6.71216 7.24365 6.99613 6.74992 7.50004L3.74992 10.5C2.71438 11.5356 2.71438 13.2145 3.74992 14.25C4.78545 15.2856 6.46438 15.2856 7.49992 14.25L7.87492 13.875" stroke="white" stroke-width="1.5" stroke-linecap="round" stroke-linejoin="round"/>
</svg>
