<?xml version="1.0" encoding="UTF-8"?>
<svg id="Layer_2" data-name="Layer 2" xmlns="http://www.w3.org/2000/svg" viewBox="0 0 168.7 180.99">
  <defs>
    <style>
      .cls-1 {
        fill: #fff;
      }
    </style>
  </defs>
  <g id="Layer_1-2" data-name="Layer 1">
    <g>
      <path class="cls-1" d="M0,90.37C0,63.77,0,37.18,0,10.58c0-2.29,.29-4.5,1.63-6.43C3.43,1.55,5.91,.1,9.09,.04,12.23-.03,15.38,.05,18.53,0c1.22-.02,1.91,.43,2.23,1.62,.33,1.24,.78,2.45,1.2,3.66,1.71,4.94,5.34,7.74,10.55,7.77,13.17,.07,26.34,.07,39.51,0,5.09-.03,8.7-2.86,10.37-7.72Q84.2,.02,89.83,.02c1.86,0,3.73-.05,5.59,.02,4.9,.18,8.79,4.04,8.81,8.95,.06,12.85,0,25.7,.06,38.55,0,1.88-.94,2.04-2.4,2.03-16.45-.02-32.89-.01-49.34-.01-12.91,0-25.83,0-38.74,0-3.08,0-3.61,.52-3.61,3.56,0,26.66,.06,53.33-.06,79.99-.02,4.79,3.14,9.76,9.71,9.72,26.92-.15,53.84-.06,80.76-.06,.71,0,1.41,.01,2.12,.02,.99,.01,1.53,.42,1.53,1.51-.02,9.44,.1,18.89-.08,28.33-.09,4.62-4.04,8.18-9.07,8.27-9.25,.16-18.5,.04-27.75,.07-1.3,0-1.82-.54-1.93-1.81-.25-2.97-1.22-5.63-3.62-7.61-1.54-1.26-3.24-2.1-5.25-2.14-2.7-.05-5.4-.1-8.09-.02-4.97,.14-8.68,3.58-9.35,8.56q-.41,3.01-3.41,3.02c-8.35,0-16.7,0-25.06,0-6.87,0-10.63-3.75-10.63-10.6,0-26.66,0-53.33,0-79.99Z"/>
      <path class="cls-1" d="M100.03,125.51c-21.91,0-43.81,0-65.72,0-2.77,0-2.78,0-2.78-2.76,0-22.1,0-44.2,0-66.29,0-2.78,0-2.79,2.77-2.79,34.05,0,68.09,0,102.14,0,2.85,0,2.85,0,2.85,2.92,0,12.33,.03,24.67-.03,37,0,1.95,.46,3.6,1.49,5.25,2.64,4.25,5.14,8.6,7.73,12.89,1.63,2.7,3.16,2.68,4.81-.04,2.72-4.51,5.39-9.05,8.13-13.55,.83-1.37,1.18-2.79,1.17-4.39-.03-12.46-.03-24.92,0-37.39,0-.88-.52-2.2,.75-2.5,1.6-.38,3.34-.55,4.89,.19,.69,.33,.39,1.29,.39,1.97,.02,8.42,.01,16.83,.01,25.25,0,13.75,0,27.49,0,41.24q0,3.01-3.09,3.01c-21.84,0-43.68,0-65.52,0Zm-4.04-35.19c.02-15.87-12.52-28.52-28.42-28.69-15.7-.16-28.72,12.83-28.74,28.67-.02,15.73,12.79,28.49,28.62,28.5,15.89,0,28.53-12.6,28.54-28.48Zm21.06-6.7c3.98,0,7.97,0,11.95,0,1.5,0,2.93-.23,3.11-2.11,.14-1.41-1.04-2.19-3.18-2.23-.13,0-.26,0-.39,0-7.52,0-15.03,0-22.55,0-.58,0-1.17-.01-1.72,.11-1.11,.24-1.9,.88-1.88,2.1,.02,1.22,.84,1.83,1.95,2.05,.56,.11,1.15,.09,1.73,.09,3.66,0,7.32,0,10.99,0Zm.2,29.36c4.04,0,8.07,0,12.11,0,1.42,0,2.7-.32,2.73-1.98,.03-1.79-1.3-2.11-2.8-2.11-8.01,.01-16.02,.02-24.03,0-1.51,0-2.86,.35-2.83,2.09,.02,1.75,1.41,2.03,2.9,2.02,3.97-.03,7.95,0,11.92-.01Zm.02-44.29c3.98,0,7.96,0,11.94,0,1.45,0,2.9-.23,2.86-2.04-.03-1.74-1.4-2.07-2.89-2.07-7.96,.01-15.92,.01-23.88,0-1.49,0-2.87,.34-2.87,2.08,0,1.76,1.41,2.04,2.89,2.04,3.98-.02,7.96,0,11.94,0Zm.06,25.49c-4.04,0-8.09,.01-12.13,0-1.43,0-2.73,.34-2.76,1.97-.04,1.75,1.3,2.14,2.81,2.14,8.03,0,16.05,0,24.08,0,1.52,0,2.81-.45,2.76-2.19-.05-1.69-1.42-1.91-2.8-1.91-3.98,0-7.96,0-11.94,0Z"/>
      <path class="cls-1" d="M92.98,138.63c-24.08,0-48.17,0-72.25,0-.77,0-1.55,.04-2.31-.05-2.22-.25-3.79-1.91-3.92-4.07-.13-2.24,1.12-4.06,3.29-4.58,.92-.22,1.91-.28,2.86-.28,48.36-.01,96.72-.01,145.08,0,2.9,0,2.9,.01,2.9,2.85,0,1.54-.03,3.08,0,4.62,.02,1.04-.42,1.55-1.48,1.51-.64-.02-1.28,0-1.93,0-24.08,0-48.17,0-72.25,0Z"/>
      <path class="cls-1" d="M158.24,55.33c0,11.43,0,22.87,0,34.3,0,2.21-.08,2.27-1.92,1.17-6.34-3.77-4.68-3.64-10.89,0-1.86,1.09-2.02,1.02-2.02-1.08,0-22.81,.01-45.61-.03-68.42,0-1.82,.54-2.52,2.42-2.45,3.4,.12,6.81,.12,10.21,0,1.83-.06,2.28,.66,2.27,2.36-.06,11.37-.03,22.74-.03,34.11Z"/>
      <path class="cls-1" d="M27.41,89.69c0,11.05,0,22.1,0,33.14,0,2.66-.03,2.61-2.7,2.69-3.06,.1-6.17-.49-9.16,.66-.88,.34-1.17-.16-1.21-.93-.02-.51-.02-1.03-.02-1.54,0-22.29,0-44.58,0-66.87q0-3.19,3.22-3.19c2.38,0,4.75,0,7.13,0,2.61,.01,2.74,.12,2.74,2.7,0,11.11,0,22.23,0,33.34Z"/>
      <path class="cls-1" d="M52.1,.02c8.29,0,16.57,0,24.86,0,2.7,0,2.73,.06,1.93,2.54-1.64,5.11-3.1,6.17-8.52,6.17-12.46,0-24.92,0-37.38,0-4.49,0-7.81-3.24-7.96-7.7-.04-1.16,.77-.99,1.44-1,3.15-.02,6.29-.01,9.44-.01,5.4,0,10.79,0,16.19,0Z"/>
      <path class="cls-1" d="M150.67,14.77c-1.86,0-3.73,.01-5.59,0-.72,0-1.37-.09-1.63-1-1.38-4.76,1.99-9.94,6.81-10.43,3.87-.39,7.75,2.64,7.9,6.51,.22,5.79,.6,4.84-4.41,4.93-1.03,.02-2.06,0-3.08,0h0Z"/>
      <path class="cls-1" d="M52.12,180.96c-2.44,0-4.87-.03-7.31,0-1.36,.02-1.8-.58-1.65-1.9,.4-3.5,2.58-5.54,6.14-5.59,2.12-.03,4.23-.07,6.35,.02,3.3,.15,5.83,3.09,5.63,6.36-.07,1.18-.91,1.08-1.65,1.09-2.5,.03-5,0-7.5,0Z"/>
      <path class="cls-1" d="M157.12,96.97c-.1,.2-.22,.5-.38,.77-1.64,2.76-3.31,5.49-4.92,8.27-.66,1.14-1.17,1.17-1.85,.01-1.62-2.77-3.26-5.52-4.94-8.25-.62-1.01-.39-1.66,.6-2.17,.23-.12,.44-.27,.66-.4,4.97-3.02,5.63-2.98,10.2,.61,.36,.28,.76,.5,.63,1.16Z"/>
      <path class="cls-1" d="M67.5,65.9c13.47,0,24.41,10.94,24.4,24.4,0,13.36-11.09,24.41-24.47,24.4-13.44-.01-24.33-10.96-24.33-24.47,0-13.5,10.86-24.33,24.4-24.33Zm4.39,30.64c.07,.92-.16,1.91-.85,2.74-1.23,1.51-2.86,1.92-4.68,1.52-2.08-.45-3.11-1.94-3.45-3.93-.24-1.38-.82-2.39-2.37-2.16-1.65,.25-1.93,1.54-1.74,2.92,.39,2.86,1.83,5.1,4.41,6.39,1.48,.74,2.32,1.53,2.19,3.33-.1,1.29,.72,2.19,2.15,2.17,1.4-.02,1.95-.96,1.87-2.18-.11-1.67,.67-2.47,2.12-3.19,3.34-1.67,5.13-5.24,4.58-8.58-.72-4.37-2.71-6.44-7.03-7.25-.69-.13-1.4-.16-2.1-.21-2.55-.2-3.97-1.6-4.07-4-.09-2.18,1.62-4.16,3.92-4.55,2.08-.35,4.34,1.08,4.93,3.14,.12,.43,.11,.9,.25,1.32,.4,1.19,1.11,2.15,2.52,1.81,1.33-.32,1.8-1.41,1.62-2.69-.4-2.98-1.76-5.42-4.56-6.7-1.56-.71-2.29-1.61-2.2-3.34,.07-1.34-.72-2.27-2.1-2.22-1.27,.04-2.05,1.01-1.92,2.21,.2,1.9-.8,2.64-2.28,3.46-3.47,1.91-5,5.56-4.16,9.32,.85,3.82,3.25,5.87,7.43,6.36,.7,.08,1.4,.17,2.1,.27,2.28,.33,3.37,1.59,3.41,4.04Z"/>
    </g>
  </g>
</svg>