<svg width="10" height="10" viewBox="0 0 10 10" fill="none" xmlns="http://www.w3.org/2000/svg">
<path fill-rule="evenodd" clip-rule="evenodd" d="M0.42942 0.444182C0.579442 0.294205 0.782888 0.209953 0.99502 0.209953C1.20715 0.209953 1.4106 0.294205 1.56062 0.444182L4.99502 3.87858L8.42942 0.444182C8.50322 0.367774 8.59149 0.306828 8.6891 0.264901C8.7867 0.222973 8.89168 0.200904 8.9979 0.199981C9.10412 0.199058 9.20947 0.2193 9.30778 0.259524C9.4061 0.299749 9.49542 0.359151 9.57054 0.434266C9.64565 0.50938 9.70505 0.598701 9.74528 0.697018C9.7855 0.795336 9.80574 0.900679 9.80482 1.0069C9.8039 1.11313 9.78183 1.2181 9.7399 1.31571C9.69797 1.41331 9.63703 1.50158 9.56062 1.57538L6.12622 5.00978L9.56062 8.44418C9.70635 8.59506 9.78698 8.79714 9.78516 9.0069C9.78334 9.21666 9.6992 9.41731 9.55087 9.56564C9.40255 9.71396 9.2019 9.7981 8.99214 9.79992C8.78238 9.80174 8.5803 9.72111 8.42942 9.57538L4.99502 6.14098L1.56062 9.57538C1.40974 9.72111 1.20766 9.80174 0.997899 9.79992C0.788141 9.7981 0.587491 9.71396 0.439165 9.56564C0.290838 9.41731 0.206703 9.21666 0.20488 9.0069C0.203057 8.79714 0.283693 8.59506 0.42942 8.44418L3.86382 5.00978L0.42942 1.57538C0.279443 1.42536 0.19519 1.22191 0.19519 1.00978C0.19519 0.79765 0.279443 0.594204 0.42942 0.444182Z" fill="white"/>
</svg>
