<?xml version="1.0" encoding="utf-8"?>
<!-- Generator: Adobe Illustrator 27.0.0, SVG Export Plug-In . SVG Version: 6.00 Build 0)  -->
<svg version="1.1" id="Layer_2_00000005964136534711393460000015714419107769564554_"
	 xmlns="http://www.w3.org/2000/svg" xmlns:xlink="http://www.w3.org/1999/xlink" x="0px" y="0px" viewBox="0 0 320 255.8"
	 style="enable-background:new 0 0 320 255.8;" xml:space="preserve">
<style type="text/css">
	.st0{fill:#FFFFFF;}
</style>
<g id="Layer_1-2">
	<g>
		<path class="st0" d="M0,140.4c0-26.7,0-53.3,0-80c0-14.2,7.2-21.7,21.3-22c3.6-0.1,4.5-1.3,4.5-4.7c-0.2-8.3-0.1-16.7,0-25
			c0.1-6.9,2-8.8,9-8.8c40.6,0.3,80.8,4.7,120.7,11.8c3.2,0.6,6.2,0.6,9.4,0c39.6-7,79.4-11.5,119.7-11.8c8.3-0.1,9.9,1.5,9.9,9.9
			c0,8,0.1,16,0,24c0,3,0.6,4.4,4.1,4.6C313.4,39,320,46,320,60.6c0,53.5,0,106.9,0,160.4c0,14.7-7.5,22.2-22.2,22.1
			c-43.8-0.4-87.1,4.2-130.2,12c-5,0.9-9.9,1-14.9,0c-43.4-7.9-87-12.4-131.2-12C7.7,243.3,0,235.3,0,221.4C0,194.4,0,167.4,0,140.4
			L0,140.4z M38.5,108.4c0,30.5,0,61-0.1,91.4c0,3.7,0.8,5.3,4.9,5.4c35.4,0.6,70.5,4.4,105.3,10.3c3.3,0.6,5.1,0.7,5.1-3.8
			c-0.1-61-0.1-121.9,0-182.9c0-3.3-1.1-4.6-4.4-5.2c-34.7-5.7-69.6-9.6-104.8-10.6c-4.8-0.1-6.2,1-6.2,5.9
			C38.6,48.8,38.5,78.6,38.5,108.4L38.5,108.4z M281.7,108.9c0-30.2-0.1-60.3,0.1-90.4c0-4.5-1.4-5.5-5.7-5.4
			c-34.9,1-69.4,4.8-103.8,10.3c-4.6,0.7-5.9,2.3-5.9,7c0.2,60,0.1,119.9,0.1,179.9c0,6,0,6,6.1,5c34.4-5.7,69-9.5,103.8-10
			c4.7-0.1,5.4-1.8,5.4-5.9C281.6,169.2,281.7,139.1,281.7,108.9L281.7,108.9z M307.2,141.1c0-1.3,0-2.7,0-4c0-26,0-52,0-78
			c0-6-2.3-7.7-8.3-8c-6.3-0.3-4.3,4.3-4.3,7.2c-0.1,50-0.1,100-0.1,150c0,7.2-1.8,9.2-8.6,9.2c-40.8,0.4-81.1,5-121.2,12.1
			c-3,0.5-5.9,0.6-8.9,0c-39.8-7.1-79.8-11.6-120.2-12.1c-8.2-0.1-9.7-1.7-9.7-10.1c0-50,0-100,0-150c0-6-4.2-8.4-9.6-5.3
			c-3.3,1.9-3.3,5.1-3.3,8.3c0,53.5,0,107,0,160.5c0,7.6,1.8,9.5,9.4,9.4c44.7-0.5,88.8,4.2,132.7,12.2c3.5,0.6,6.9,0.6,10.4,0
			c43.7-7.9,87.7-12.6,132.2-12.1c8,0.1,9.6-1.6,9.6-9.8C307.2,194.1,307.2,167.6,307.2,141.1L307.2,141.1z"/>
		<path class="st0" d="M199.2,134.4c4.1-1.2,5.6,1.1,6.8,5.7c3.3,13.2,21.6,18.5,31.9,9.5c7.1-6.1,6.9-16.7-0.3-22.7
			c-5.4-4.4-11.8-6.8-18-9.7c-5.3-2.4-10.7-4.8-15.4-8.3c-8.6-6.5-13.4-14.8-11.8-25.8c1.7-11.8,8.3-20,19.7-23.5
			c4.7-1.4,6.1-3.5,5.7-8c-0.2-2.2-1.3-5.4,1.1-6.4c3.1-1.4,6.9-0.8,10.3-0.2c1.4,0.2,1.3,1.8,1.3,2.9c0.1,2,0.2,4,0,6
			c-0.3,3,0.8,4.4,3.8,5.3c12.7,3.9,19.1,13.1,21.4,25.8c0.7,3.6-0.5,5-4.1,4.6c-1.3-0.1-2.7-0.1-4,0c-2.9,0.2-4.3-0.5-5-3.8
			c-3-13.9-16.9-19.9-29.5-13.2c-9.8,5.2-11,18.7-2.2,25.5c5.3,4.1,11.6,6.5,17.6,9.3c5.6,2.6,11.3,5,16.1,8.9
			c8.4,6.8,12.8,15.4,10.9,26.3c-1.9,11.2-8.7,18.8-19.5,21.9c-4.8,1.4-6,3.5-5.6,8c0.2,2.1,1.3,5.4-1.1,6.4
			c-3.2,1.3-6.9,0.7-10.4,0.2c-1.4-0.2-1.2-1.8-1.3-2.9c0-2-0.2-4,0-6c0.3-3-0.9-4.3-3.9-5.2c-11.6-3.6-18.3-11.7-20.9-23.3
			C191.4,134.4,191.4,134.4,199.2,134.4L199.2,134.4z"/>
	</g>
</g>
</svg>
