<svg width="16" height="13" viewBox="0 0 16 13" fill="none" xmlns="http://www.w3.org/2000/svg">
<path fill-rule="evenodd" clip-rule="evenodd" d="M11.1699 7.28204C12.1188 7.92616 12.7837 8.79883 12.7837 9.9624V12.0402H14.8615C15.2424 12.0402 15.5541 11.7285 15.5541 11.3476V9.9624C15.5541 8.45253 13.0815 7.55908 11.1699 7.28204Z" fill="#005974"/>
<path d="M5.85731 6.49959C7.38735 6.49959 8.6277 5.25924 8.6277 3.72919C8.6277 2.19915 7.38735 0.958801 5.85731 0.958801C4.32726 0.958801 3.08691 2.19915 3.08691 3.72919C3.08691 5.25924 4.32726 6.49959 5.85731 6.49959Z" fill="#005974"/>
<path fill-rule="evenodd" clip-rule="evenodd" d="M10.0127 6.49959C11.5433 6.49959 12.7831 5.25983 12.7831 3.72919C12.7831 2.19855 11.5433 0.958801 10.0127 0.958801C9.68719 0.958801 9.38244 1.02806 9.09155 1.12502C9.66641 1.8384 10.0127 2.7457 10.0127 3.72919C10.0127 4.71268 9.66641 5.61999 9.09155 6.33336C9.38244 6.43033 9.68719 6.49959 10.0127 6.49959Z" fill="#005974"/>
<path fill-rule="evenodd" clip-rule="evenodd" d="M5.85719 7.19214C4.00795 7.19214 0.316406 8.12022 0.316406 9.96253V11.3477C0.316406 11.7287 0.628075 12.0403 1.009 12.0403H10.7054C11.0863 12.0403 11.398 11.7287 11.398 11.3477V9.96253C11.398 8.12022 7.70643 7.19214 5.85719 7.19214Z" fill="#005974"/>
</svg>
