<?xml version="1.0" encoding="UTF-8"?>
<svg id="Layer_2" data-name="Layer 2" xmlns="http://www.w3.org/2000/svg" viewBox="0 0 23.32 25">
  <defs>
    <style>
      .cls-1 {
        fill: #fff;
      }
    </style>
  </defs>
  <g id="Layer_1-2" data-name="Layer 1">
    <g>
      <path class="cls-1" d="M19.65,0H3.59C1.61,0,0,1.6,0,3.58V24.78c0,.11,.12,.18,.21,.12l2.84-1.62c.05-.03,.11-.02,.16,.01l2.09,1.67s.11,.04,.16,.01l2.98-1.7s.1-.03,.14,0l2.98,1.7c.05,.03,.11,.02,.16-.01l2.09-1.67s.11-.04,.16-.01l2.84,1.62c.1,.05,.21-.01,.21-.12V3.8c0-1.66,1.16-3.17,2.63-3.65,.09-.03,.07-.15-.02-.15ZM2.69,4.29c0-.15,.12-.27,.27-.27h5.74c.15,0,.27,.12,.27,.27v.8c0,.15-.12,.27-.27,.27H2.96c-.15,0-.27-.12-.27-.27v-.8Zm4.48,7.96c0,.15-.12,.27-.27,.27H2.96c-.15,0-.27-.12-.27-.27v-.8c0-.15,.12-.27,.27-.27h3.95c.15,0,.27,.12,.27,.27v.8Zm1.52-3.31H2.96c-.15,0-.27-.12-.27-.27v-.8c0-.15,.12-.27,.27-.27h5.74c.15,0,.27,.12,.27,.27v.8c0,.15-.12,.27-.27,.27Zm5.65,4.92c0,.25-.2,.45-.45,.45h-2.69c-.25,0-.45,.2-.45,.45s.2,.45,.45,.45h.9c1.31,0,2.37,1.13,2.23,2.47-.11,1.04-.98,1.82-2.01,1.97v1.1c0,.15-.12,.27-.27,.27h-.81c-.15,0-.27-.12-.27-.27v-1.07h-1.57c-.25,0-.45-.2-.45-.45v-.89c0-.25,.2-.45,.45-.45h2.69c.25,0,.45-.2,.45-.45s-.2-.45-.45-.45h-.77c-1.17,0-2.24-.84-2.36-2-.13-1.26,.8-2.32,2.01-2.44v-1.1c0-.15,.12-.27,.27-.27h.81c.15,0,.27,.12,.27,.27v1.07h1.57c.25,0,.45,.2,.45,.45v.89h0Zm0-5.18c0,.15-.12,.27-.27,.27h-2.15c-.15,0-.27-.12-.27-.27v-.8c0-.15,.12-.27,.27-.27h2.15c.15,0,.27,.12,.27,.27v.8Zm0-3.58c0,.15-.12,.27-.27,.27h-2.15c-.15,0-.27-.12-.27-.27v-.8c0-.15,.12-.27,.27-.27h2.15c.15,0,.27,.12,.27,.27v.8Z"/>
      <path class="cls-1" d="M23.32,3.8v5.14h-4.93V3.8c0-1.36,1.1-2.46,2.47-2.46s2.47,1.1,2.47,2.46Z"/>
    </g>
  </g>
</svg>