<?xml version="1.0" encoding="UTF-8"?>
<svg id="Layer_2" data-name="Layer 2" xmlns="http://www.w3.org/2000/svg" viewBox="0 0 134.14 176.08">
  <defs>
    <style>
      .cls-1 {
        fill: #fff;
      }
    </style>
  </defs>
  <g id="Layer_1-2" data-name="Layer 1">
    <g>
      <path class="cls-1" d="M34.73,176.08c-2.98-1.37-3.97-3.72-3.83-6.93,.18-3.95,.12-7.91,0-11.86-.04-1.49,.32-1.89,1.86-1.89,21.54,.06,43.08,.05,64.63,.04,7.65,0,13.68-4.51,15.56-11.57,.45-1.68,.53-3.38,.53-5.11,0-35.12,0-70.24-.05-105.36,0-1.71,.36-2.21,2.13-2.15,4.29,.15,8.59,.04,12.89,.05,3.55,.01,5.65,2.11,5.66,5.68,0,44.46,0,88.92,.03,133.38,0,2.85-1.46,4.53-3.8,5.72H34.73Z"/>
      <path class="cls-1" d="M0,72.56c0-22.12,0-44.23,0-66.35C0,1.94,1.92,0,6.16,0c30.31,0,60.62,0,90.93,0,4.12,0,6.08,1.97,6.08,6.12,0,44.29,0,88.58,0,132.87,0,4.15-1.96,6.13-6.07,6.13-30.37,0-60.74,0-91.1,0-4.01,0-5.99-2-5.99-6.04C0,116.91,0,94.74,0,72.56Zm51.57-25.79c-10.13,0-20.27,.01-30.4-.01-2.42,0-4.25,.92-5.25,3.14-1.59,3.52,1.05,7.18,5.18,7.18,12.14,.02,24.28,0,36.42,0,8.19,0,16.38,0,24.56,0,2.34,0,4.13-.92,5.13-3.06,1.64-3.52-.96-7.24-5.06-7.25-10.19-.02-20.38,0-30.58,0Zm0,20.63c-10.13,0-20.27,.01-30.4-.01-2.42,0-4.25,.92-5.26,3.13-1.59,3.52,1.05,7.18,5.18,7.19,11.8,.02,23.59,0,35.39,0,8.53,0,17.06,0,25.6,0,2.34,0,4.13-.91,5.13-3.06,1.64-3.52-.95-7.25-5.05-7.26-10.19-.02-20.38,0-30.58,0Zm-.02,20.63c-10.14,0-20.27,.01-30.4,0-2.42,0-4.25,.93-5.24,3.15-1.58,3.53,1.07,7.17,5.2,7.17,12.94,.02,25.88,0,38.82,0,7.39,0,14.77,0,22.16,0,2.34,0,4.13-.93,5.12-3.07,1.63-3.52-.97-7.23-5.08-7.24-10.19-.02-20.38,0-30.58,0Zm-15.44-61.9c-5.04,0-10.07-.02-15.11,0-3.2,.01-5.5,2.16-5.54,5.09-.03,3,2.3,5.21,5.59,5.21,10.01,.02,20.03,.01,30.04,0,3.32,0,5.64-2.17,5.62-5.18-.01-3.01-2.33-5.12-5.67-5.13-4.98-.01-9.96,0-14.94,0Zm36.03,92.85c3.26,0,6.52,0,9.78,0,3.44-.01,5.79-2.16,5.75-5.23-.04-3-2.36-5.08-5.71-5.08-6.52-.01-13.04-.01-19.56,0-3.32,0-5.65,2.14-5.66,5.14,0,3,2.32,5.15,5.63,5.17,3.26,.02,6.52,0,9.78,0Z"/>
    </g>
  </g>
</svg>