<svg xmlns="http://www.w3.org/2000/svg" viewBox="0 0 95.37 86.93"><defs><style>.cls-1{fill:#fff;}</style></defs><g id="Layer_2" data-name="Layer 2"><g id="Layer_1-2" data-name="Layer 1"><g id="Layer_2-2" data-name="Layer 2"><g id="Layer_1-2-2" data-name="Layer 1-2"><path class="cls-1" d="M94.73,45.65a59.4,59.4,0,0,0-46.08,0S42,78.8,71.5,86.93h.38C101.37,78.8,94.73,45.65,94.73,45.65Z"/><path class="cls-1" d="M13.71,61.46A6.68,6.68,0,0,0,14.18,59a6.61,6.61,0,0,0-6.61-6.61h0A6.48,6.48,0,0,0,5,52.94V25.72a6.49,6.49,0,0,0,2.57.52,6.6,6.6,0,0,0,6.16-9H72.94a6.6,6.6,0,0,0,9.4,8.14v8.47c1.67.27,3.33.61,5,1V21a8.74,8.74,0,0,0-8.72-8.72H8.72A8.74,8.74,0,0,0,0,21V57.73a8.74,8.74,0,0,0,8.72,8.73h32.8a45.13,45.13,0,0,1-1-5Z"/><path class="cls-1" d="M4.61,5H79.48a2.5,2.5,0,0,0,0-5H4.61a2.5,2.5,0,0,0,0,5Z"/><path class="cls-1" d="M43.67,24.61c-7.83,0-14.17,6.6-14.17,14.74A14.67,14.67,0,0,0,39.92,53.58a49.73,49.73,0,0,1,.89-9.51l.84-4.23,4-1.61a73.94,73.94,0,0,1,11.43-3.6A14.21,14.21,0,0,0,43.67,24.61Z"/><path class="cls-1" d="M13,39.33a3.43,3.43,0,1,0,3.43-3.43A3.44,3.44,0,0,0,13,39.33Z"/></g></g></g></g></svg>