<svg xmlns="http://www.w3.org/2000/svg" viewBox="0 0 26.17 20.17"><defs><style>.cls-1{fill:#fff;}</style></defs><g id="Layer_2" data-name="Layer 2"><g id="Layer_1-2" data-name="Layer 1"><path class="cls-1" d="M17.18,12.24a.71.71,0,0,0-.61.29,1.49,1.49,0,0,0-.22.9c0,.79.28,1.18.83,1.18a.74.74,0,0,0,.62-.3,1.43,1.43,0,0,0,.22-.88,1.48,1.48,0,0,0-.22-.89A.74.74,0,0,0,17.18,12.24Z"/><path class="cls-1" d="M25.12,6.17h0a1,1,0,0,0,1.05-1V1a1,1,0,0,0-1.05-1H1.05A1,1,0,0,0,0,1V5.12a1,1,0,0,0,1.05,1,1,1,0,0,1,1,1V13a1,1,0,0,1-1,1,1,1,0,0,0-1,1v4.09a1,1,0,0,0,1.05,1.05H25.12a1,1,0,0,0,1.05-1.05V15a1,1,0,0,0-1.05-1h0a1,1,0,0,1-1.05-1V7.21A1,1,0,0,1,25.12,6.17Zm-19,.56a2.82,2.82,0,0,1,.8-2.16A2.92,2.92,0,0,1,9,3.81a2.9,2.9,0,0,1,2.07.76,2.86,2.86,0,0,1,.8,2.16,2.86,2.86,0,0,1-.8,2.16A2.86,2.86,0,0,1,9,9.65a2.88,2.88,0,0,1-2.08-.76A2.82,2.82,0,0,1,6.11,6.73Zm2.22,9.43L15,4h2.85L11.18,16.16Zm10.94-.57a2.86,2.86,0,0,1-2.07.76,2.68,2.68,0,0,1-2.87-2.92,2.85,2.85,0,0,1,.79-2.16,2.91,2.91,0,0,1,2.08-.76,2.9,2.9,0,0,1,2.07.76,2.85,2.85,0,0,1,.79,2.16A2.84,2.84,0,0,1,19.27,15.59Z"/><path class="cls-1" d="M9.82,6.73c0-.79-.28-1.19-.85-1.19s-.83.4-.83,1.19S8.42,7.91,9,7.91a.74.74,0,0,0,.63-.3A1.5,1.5,0,0,0,9.82,6.73Z"/></g></g></svg>